<svg width="26" height="40" viewBox="0 0 26 40" fill="none" xmlns="http://www.w3.org/2000/svg">
<path d="M12.5655 38.4255L12.5654 38.4252C11.4704 31.491 8.39746 27.205 5.64405 23.5876C5.51229 23.4145 5.3815 23.2431 5.25189 23.0733C2.65727 19.6744 0.533447 16.8921 0.533447 12.8985C0.533447 6.0508 6.08425 0.5 12.9319 0.5C19.7796 0.5 25.3304 6.0508 25.3304 12.8985C25.3304 16.8921 23.2066 19.6744 20.612 23.0733C20.4823 23.2431 20.3516 23.4145 20.2198 23.5876C17.4664 27.205 14.3935 31.491 13.2984 38.4252L13.2984 38.4255C13.2827 38.525 13.2697 38.6134 13.2577 38.6954C13.2406 38.8114 13.2255 38.9147 13.2073 39.0187C13.1774 39.1897 13.1483 39.303 13.1159 39.3807C13.1008 39.417 13.0879 39.438 13.0794 39.4495C13.0716 39.4599 13.0671 39.463 13.0656 39.4641C13.0642 39.465 13.0574 39.4696 13.0393 39.4744C13.0199 39.4796 12.986 39.4854 12.9319 39.4854C12.8779 39.4854 12.844 39.4796 12.8247 39.4744C12.8065 39.4696 12.7998 39.4651 12.7983 39.4641C12.7968 39.4631 12.7923 39.4599 12.7846 39.4495C12.7761 39.438 12.7632 39.417 12.748 39.3807C12.7156 39.303 12.6866 39.1896 12.6567 39.0186C12.6385 38.9147 12.6233 38.8115 12.6062 38.6956C12.5942 38.6135 12.5811 38.525 12.5655 38.4255Z" fill="#F5D066" stroke="black"/>
<circle cx="13" cy="13" r="6" fill="#E1B73E"/>
</svg>
